<svg id="Laag_1" data-name="Laag 1" xmlns="http://www.w3.org/2000/svg" viewBox="0 0 420.6 230.2"><defs><style>.cls-1,.cls-2{fill:#c3a291;}.cls-1{fill-rule:evenodd;}.cls-3,.cls-4{fill:none;stroke:#c3a291;stroke-miterlimit:10;}.cls-3{stroke-width:0.67px;}.cls-4{stroke-width:0.67px;}</style></defs><title>Logo The Vegan World</title><path class="cls-1" d="M322.18,83.29c53.25,23.27,78.71,58.19,78.71,58.19,6.54-8.44,22.11-31.13,21.39-66.77-5.23,32.59-26.92,59.36-26.92,59.36s-1.74-1.9-11.93-12.66c14.26-27.21,38.7-49.46,38.7-49.46-20.51,11.78-34.91,28.51-45.1,42.92L358.7,101.33C383.29,78.63,410.35,68,423,62.92c-30.41,6-53,20.23-71.43,33.8a209.88,209.88,0,0,1-19-9.89c35.11-20.18,65.56-23.67,90.78-24.64C363.16,56.52,322.18,83.29,322.18,83.29Z" transform="translate(-90.75 -61.4)"/><path class="cls-1" d="M171,71.66c90.36-6.85,180.7,16.57,223.47,66a189.61,189.61,0,0,1-17.84,17.46c-28.27-38.84-99.41-78.27-205.18-80.75,38.41,1.17,146.5,10.91,196.85,85.79-10.34,6.6-15.57,9.64-22.41,12.55C301.38,109.62,213.36,87.5,171.75,77.33,242.61,94.49,299.92,121,336.68,176.69c-10.09,2.72-20.75,5-32,5.63C290.76,153.56,251.19,113,172.33,80.09c22.4,10.18,83.46,36.27,120.32,102.58-13.58-1.13-27-3.64-28.71-4.42-16.68-36.47-53.15-70.81-91.56-96.8,28,18.87,57.27,52.63,76.91,91.75-19.79-8.58-68.52-37.1-77.11-90.2,8.83,97.1,145.56,162.44,228.57,58.84,5.37-6.75,3.62-7,.41-13C374.38,98.21,316.69,58,171,71.66Z" transform="translate(-90.75 -61.4)"/><path class="cls-2" d="M143.28,201.58H110.74a1.85,1.85,0,0,0-1.68,1.05L107.38,206a1,1,0,0,0,0,1,0.94,0.94,0,0,0,.84.48h13c-2.87,5.44-7,13.26-9.37,17.51-21.49,2.56-26.3,20.21-15.92,20.21,6.55,0,13.58-2.53,21.09-15.84,1.5-2.65,7.78-14.54,11.67-21.88h11.85a2.43,2.43,0,0,0,2.25-1.42l1.42-2.79a1.1,1.1,0,0,0,0-1.1A1.14,1.14,0,0,0,143.28,201.58ZM96.81,240.26c-4,0,1.59-9.37,13-11.5C104.42,237.61,99.56,240.26,96.81,240.26Z" transform="translate(-90.75 -61.4)"/><path class="cls-2" d="M164.36,217.71c-1.64,1.73-15,14.46-16.71,15.87-1.1,1-2.17,2-2.52,1.55s0.79-2.79,1.46-4c1.9-3.59,2.88-5.4,4-7.47,3-5.62.31-7.87-3.09-7.87-2.12,0-8.53,1.89-17.37,13.49L145,201.58h-7l-23.39,43.59h7c5.75-10.62,17.55-21.67,20.07-21.67,1.51,0,1,1.94-.88,5.35-2,3.71-3.32,6.28-5.13,9.59-2.48,4.6-1.19,6.73,1.72,6.73,1.82,0,4.29-1.07,8.09-4.69,3.58-3.36,18.12-18,19.37-19.32C165.29,220.68,165.25,216.83,164.36,217.71Z" transform="translate(-90.75 -61.4)"/><path class="cls-2" d="M161,235.45c3.85,1.19,8.23-.89,12-5.62,6.32-7.92,2.34-14-4.07-14-3.89,0-9.94,3.45-14.9,11.31-6.05,9.68-3.85,18,7,18,5,0,9.86-3,14.63-6.91,1.73-1.46-1.28-3.79-1.28-3.79-3.93,3.36-7.73,5.43-11.14,5.43-3.8,0-5.35-2.25-4.6-5.79A5.5,5.5,0,0,0,161,235.45Zm-0.4-5.92c2.87-4.83,7-8.67,9.33-8.67s-0.13,5.17-3,7.55c-2.07,1.72-4.55,3.41-6.72,1.72A3.86,3.86,0,0,0,160.64,229.53Z" transform="translate(-90.75 -61.4)"/><path class="cls-2" d="M207.59,239c-2.08,0-1.11-3.09,1-7.11,5.35-10.18,11.94-22.38,13.09-24.5,2.52-4.6-1.5-6.72-4.42-6.72-8.85,0-16.18,10.43-17.07,12.38s-1.06,3,2.48,4.15c2.25-6.46,8.4-11.93,10.22-11.93s0.17,3.4-1.77,6.9c-1.1,2-7.21,13.66-11.23,21.21s-1.15,11.77,4.78,11.77c13.13,0,37-43.59,37-43.59h-7.16S212.41,239,207.59,239Z" transform="translate(-90.75 -61.4)"/><path class="cls-2" d="M263.64,217.71c-8.49,11.9-18,22.2-25.6,22.2-3.79,0-5.35-2.25-4.59-5.79a5.49,5.49,0,0,0,2.34,1.33c3.84,1.19,8.22-.89,12-5.62,6.32-7.92,2.34-14-4.07-14-3.89,0-9.94,3.45-14.9,11.31-6.06,9.68-3.85,18,7,18s22.06-13.63,28.56-24.19C264.75,220.41,264.35,216.74,263.64,217.71Zm-28.25,11.82c2.88-4.83,7-8.67,9.33-8.67s-0.13,5.17-3,7.55c-2.08,1.72-4.55,3.41-6.72,1.72A4.63,4.63,0,0,0,235.39,229.53Z" transform="translate(-90.75 -61.4)"/><path class="cls-2" d="M291.75,217.71c-5.31,5.14-13.62,13-20.6,18.88,5.35-10,11-20.78,11-20.78h-7l-2.61,5c-0.49-2.66-2.35-5-4.91-5-3.93,0-9.6,3.18-15.87,12.73s-4.46,16.63,1.55,16.63c3.22,0,6.5-2.35,9.19-5.14l-2.39,4.55c-8.93,5.31-16.22,7.3-16.22,12.34,0,3.89,4.06,5.83,6.81,5.83,5.61,0,7.92-3.53,11.58-9.77,0.76-1.28,3.18-5.83,6.1-11.32a167,167,0,0,0,23.83-20.52C292.68,220.68,292.64,216.87,291.75,217.71Zm-35.63,34.58c-2.3,4.29-3.54,7.52-5.35,7.52a1.62,1.62,0,0,1-1.72-1.9c0-2,3.32-4.77,8.58-8.53Zm11.45-22.76c-2.83,4.77-7,8.66-9.29,8.66s-1.81-3.89,1-8.66,7-8.67,9.28-8.67S270.44,224.74,267.57,229.53Z" transform="translate(-90.75 -61.4)"/><path class="cls-2" d="M321,217.71c-1.63,1.73-15,14.46-16.71,15.87-1.15,1-2.17,2-2.57,1.55s0.84-2.79,1.51-4c1.9-3.59,8.22-15.34,8.22-15.34l-7,0s-1.06,2-2.6,4.9c-0.53-2.61-2.39-4.95-4.91-4.95-3.89,0-9.55,3.18-15.83,12.73s-4.47,16.63,1.55,16.63c3,0,6.19-2.17,8.79-4.78-1.2,3.27.14,4.78,2.61,4.78,1.86,0,4.29-1.07,8.09-4.69,3.53-3.36,18.13-18,19.36-19.32C321.94,220.68,321.9,216.83,321,217.71Zm-24.18,11.82c-2.83,4.77-7,8.66-9.29,8.66s-1.81-3.89,1-8.66,7-8.67,9.33-8.67S299.7,224.74,296.84,229.53Z" transform="translate(-90.75 -61.4)"/><path class="cls-2" d="M335.82,215.82c-2.07,0-8.48,1.89-17.37,13.49l7.2-13.44h-7l-15.74,29.32h7c5.75-10.62,17.56-21.67,20.12-21.67,1.51,0,.93,1.94-0.88,5.35-2,3.71-3.32,6.28-5.13,9.59-2.52,4.6-1.19,6.73,1.73,6.73,1.81,0,4.25-1.07,8.09-4.69-2.21-.79-2.29-2.83,1.06-9.33,2-3.59,2.65-4.91,3.71-7C342,217.76,339.26,215.82,335.82,215.82Z" transform="translate(-90.75 -61.4)"/><path class="cls-2" d="M389.93,239c-2.09,0-1.07-3.09,1-7.11,3.18-6,6.59-12.38,9.2-17.29,3.71-6.94,7-13,7-13l-7,0s-1.91,3.62-4.78,8.89c-5.83,9.15-19,28.51-25.86,28.51-2.07,0-1.11-3.09,1-7.11,5.35-10.18,11.94-22.38,13.09-24.5,2.51-4.6-1.51-6.72-4.42-6.72-8.85,0-16.19,10.43-17.07,12.38s-1.06,3,2.47,4.15c2.26-6.46,9.29-11.93,11.1-11.93s-0.7,3.4-2.65,6.9c-1.11,2-7.21,13.66-11.23,21.21s-1.15,11.77,4.77,11.77c5.53,0,11.77-5.88,17.11-12.74-0.18.36-.35,0.67-0.54,1-4,7.53-2,11.77,3.89,11.77,13.14,0,37-43.59,37-43.59h-7.17S394.74,239,389.93,239Z" transform="translate(-90.75 -61.4)"/><path class="cls-2" d="M445.27,219.09c-1,1.33-8.31,8.93-12.42,8.18a22.46,22.46,0,0,0,1.06-4.47c0.48-3-.09-6.75-2.53-6.75A4.79,4.79,0,0,0,428,217.8c-0.09-1.06-.36-2-1.16-2-3.93,0-10,2.91-15.87,12.73s-2.7,16.63,3.32,16.63c4.86,0,10.08-3.45,14.9-10.67,0.53-.83,1-1.63,1.46-2.42,6.85,1.11,16.32-10.48,16.71-10.92S446.41,217.62,445.27,219.09Zm-27.77,19.1c-2.3,0-1.81-3.89,1-8.66a23.75,23.75,0,0,1,7.29-8,8.49,8.49,0,0,0,.58,7.43C424.09,233.23,420.51,238.18,417.5,238.18Z" transform="translate(-90.75 -61.4)"/><path class="cls-2" d="M468.3,217.71c-1.64,1.73-15,14.46-16.72,15.87-1.1,1-2.17,2-2.51,1.55s0.79-2.79,1.45-4c1.9-3.59,2.21-3.81,3.32-5.93,3-5.65-1.42-3.4-4.82-5.34a3.71,3.71,0,0,1-1-.8c2.65-2.88,4.77-5.83,2.44-7.34a6.36,6.36,0,0,0-8.58,1.15c-3.23,4.07.23,8,2.6,9.2,1.07,0.53,3.77.84,1.51,4.6s-4.6,8.45-6.41,11.75c-2.48,4.6-1.2,6.73,1.72,6.73,1.82,0,4.29-1.07,8.09-4.69,3.58-3.36,18.13-18,19.37-19.32C469.23,220.68,469.18,216.83,468.3,217.71Z" transform="translate(-90.75 -61.4)"/><path class="cls-2" d="M483.76,217.71c-1.63,1.73-15,14.46-16.72,15.87-1.14,1-2.2,2-2.55,1.55s0.83-2.79,1.5-4c1.89-3.59,15.78-29.58,15.78-29.58h-7s-17.86,33.55-19.67,36.86c-2.52,4.6-1.19,6.73,1.72,6.73,1.86,0,4.24-1.07,8.1-4.69,3.53-3.36,18.12-18,19.36-19.32C484.7,220.68,484.6,216.83,483.76,217.71Z" transform="translate(-90.75 -61.4)"/><path class="cls-2" d="M494.15,220.72c-0.54-2.6-2.39-4.9-4.91-4.9-3.89,0-9.55,3.18-15.83,12.73S469,245.18,475,245.18c3.05,0,6.19-2.17,8.8-4.78-1.19,3.27.13,4.78,2.61,4.78,1.85,0,4.29-1.07,8.09-4.69-2.43-.44-2.47-2.91,1.1-9.33,1.91-3.59,15.79-29.58,15.79-29.58h-7S499.19,211.26,494.15,220.72Zm-5,8.81c-2.83,4.77-7,8.66-9.29,8.66s-1.81-3.89,1-8.66,7-8.67,9.33-8.67S492,224.74,489.16,229.53Z" transform="translate(-90.75 -61.4)"/><path class="cls-2" d="M219.59,277v5.11h2.94a0.53,0.53,0,0,1,.54.54v1.08a0.53,0.53,0,0,1-.54.54h-2.94v6.77a0.53,0.53,0,0,1-.54.54H218a0.53,0.53,0,0,1-.54-0.54V275.94a1.07,1.07,0,0,1,1.08-1.08h4a0.53,0.53,0,0,1,.54.54v1.08a0.53,0.53,0,0,1-.54.54h-2.94Z" transform="translate(-90.75 -61.4)"/><path class="cls-2" d="M233.7,278.74v8.93a3.91,3.91,0,1,1-7.81,0v-8.93A3.91,3.91,0,0,1,233.7,278.74Zm-2.17,0a1.74,1.74,0,0,0-3.48,0v8.93a1.74,1.74,0,1,0,3.48,0v-8.93Z" transform="translate(-90.75 -61.4)"/><path class="cls-2" d="M243.61,280.37a3.9,3.9,0,0,1-1.18,2.84,3.83,3.83,0,0,1,1.18,2.81v5a0.56,0.56,0,0,1-.54.54H242a0.56,0.56,0,0,1-.54-0.54v-5a1.73,1.73,0,0,0-1.73-1.72H238v6.77a0.58,0.58,0,0,1-.54.54h-1.08a0.56,0.56,0,0,1-.54-0.54V275.94a1.07,1.07,0,0,1,1.08-1.08h2.81a3.89,3.89,0,0,1,3.89,3.89v1.62Zm-2.17-1.62a1.73,1.73,0,0,0-1.73-1.73H238v5.11h1.73a1.74,1.74,0,0,0,1.73-1.76v-1.62Z" transform="translate(-90.75 -61.4)"/><path class="cls-2" d="M259.11,278.78v12.28a0.53,0.53,0,0,1-.54.54h-1.08a0.53,0.53,0,0,1-.54-0.54v-6.73h-3.48v6.73a0.53,0.53,0,0,1-.54.54h-1.08a0.53,0.53,0,0,1-.54-0.54V278.78A3.91,3.91,0,0,1,259.11,278.78Zm-2.17,0a1.74,1.74,0,0,0-3.48,0v3.38h3.48v-3.38Z" transform="translate(-90.75 -61.4)"/><path class="cls-2" d="M274.6,280.4a3.73,3.73,0,0,1-1.22,2.81,3.81,3.81,0,0,1,1.22,2.84v1.62a3.92,3.92,0,0,1-3.89,3.92h-2.84a1.09,1.09,0,0,1-1.08-1.08V275.94a1.07,1.07,0,0,1,1.08-1.08h2.84a3.92,3.92,0,0,1,3.89,3.92v1.62Zm-2.17-1.62a1.74,1.74,0,0,0-1.73-1.76H269v5.11h1.76a1.73,1.73,0,0,0,1.73-1.73v-1.62Zm-1.73,5.51H269v5.11h1.76a1.73,1.73,0,0,0,1.73-1.72v-1.62A1.74,1.74,0,0,0,270.71,284.29Z" transform="translate(-90.75 -61.4)"/><path class="cls-2" d="M279.58,277v5.11h2.94a0.53,0.53,0,0,1,.54.54v1.08a0.53,0.53,0,0,1-.54.54h-2.94v5.14h2.94a0.53,0.53,0,0,1,.54.54v1.08a0.53,0.53,0,0,1-.54.54h-4a1.09,1.09,0,0,1-1.08-1.08V275.94a1.07,1.07,0,0,1,1.08-1.08h4a0.53,0.53,0,0,1,.54.54v1.08a0.53,0.53,0,0,1-.54.54h-2.94Z" transform="translate(-90.75 -61.4)"/><path class="cls-2" d="M291.83,275.39v1.08a0.53,0.53,0,0,1-.54.54h-1.52v14a0.56,0.56,0,0,1-.54.54h-1.08a0.56,0.56,0,0,1-.54-0.54V277h-1.52a0.53,0.53,0,0,1-.54-0.54v-1.08a0.53,0.53,0,0,1,.54-0.54h5.21A0.53,0.53,0,0,1,291.83,275.39Z" transform="translate(-90.75 -61.4)"/><path class="cls-2" d="M300.25,275.39v1.08a0.53,0.53,0,0,1-.54.54h-1.52v14a0.56,0.56,0,0,1-.54.54h-1.08a0.56,0.56,0,0,1-.54-0.54V277H294.5a0.53,0.53,0,0,1-.54-0.54v-1.08a0.53,0.53,0,0,1,.54-0.54h5.21A0.53,0.53,0,0,1,300.25,275.39Z" transform="translate(-90.75 -61.4)"/><path class="cls-2" d="M304.88,277v5.11h2.94a0.53,0.53,0,0,1,.54.54v1.08a0.54,0.54,0,0,1-.54.54h-2.94v5.14h2.94a0.53,0.53,0,0,1,.54.54v1.08a0.53,0.53,0,0,1-.54.54h-4a1.09,1.09,0,0,1-1.08-1.08V275.94a1.07,1.07,0,0,1,1.08-1.08h4a0.53,0.53,0,0,1,.54.54v1.08a0.54,0.54,0,0,1-.54.54h-2.94Z" transform="translate(-90.75 -61.4)"/><path class="cls-2" d="M318.79,280.37a3.9,3.9,0,0,1-1.18,2.84,3.83,3.83,0,0,1,1.18,2.81v5a0.56,0.56,0,0,1-.54.54h-1.08a0.56,0.56,0,0,1-.54-0.54v-5a1.73,1.73,0,0,0-1.73-1.72h-1.73v6.77a0.58,0.58,0,0,1-.54.54h-1.08a0.56,0.56,0,0,1-.54-0.54V275.94a1.07,1.07,0,0,1,1.08-1.08h2.81a3.89,3.89,0,0,1,3.89,3.89v1.62Zm-2.17-1.62A1.73,1.73,0,0,0,314.9,277h-1.73v5.11h1.73a1.74,1.74,0,0,0,1.73-1.76v-1.62Z" transform="translate(-90.75 -61.4)"/><path class="cls-2" d="M328.64,277v5.11h2.94a0.53,0.53,0,0,1,.54.54v1.08a0.54,0.54,0,0,1-.54.54h-2.94v6.77a0.53,0.53,0,0,1-.54.54H327a0.53,0.53,0,0,1-.54-0.54V275.94a1.07,1.07,0,0,1,1.08-1.08h4a0.53,0.53,0,0,1,.54.54v1.08a0.54,0.54,0,0,1-.54.54h-2.94Z" transform="translate(-90.75 -61.4)"/><path class="cls-2" d="M342.75,275.39v12.28a3.91,3.91,0,1,1-7.81,0V275.39a0.56,0.56,0,0,1,.54-0.54h1.08a0.53,0.53,0,0,1,.54.54v12.28a1.74,1.74,0,1,0,3.48,0V275.39a0.53,0.53,0,0,1,.54-0.54h1.08A0.53,0.53,0,0,1,342.75,275.39Z" transform="translate(-90.75 -61.4)"/><path class="cls-2" d="M351.51,275.39v1.08a0.53,0.53,0,0,1-.54.54h-1.52v14a0.56,0.56,0,0,1-.54.54h-1.08a0.56,0.56,0,0,1-.54-0.54V277h-1.52a0.53,0.53,0,0,1-.54-0.54v-1.08a0.53,0.53,0,0,1,.54-0.54H351A0.53,0.53,0,0,1,351.51,275.39Z" transform="translate(-90.75 -61.4)"/><path class="cls-2" d="M361.79,275.39v12.28a3.91,3.91,0,1,1-7.81,0V275.39a0.56,0.56,0,0,1,.54-0.54h1.08a0.53,0.53,0,0,1,.54.54v12.28a1.74,1.74,0,1,0,3.48,0V275.39a0.53,0.53,0,0,1,.54-0.54h1.08A0.53,0.53,0,0,1,361.79,275.39Z" transform="translate(-90.75 -61.4)"/><path class="cls-2" d="M372.21,280.37a3.9,3.9,0,0,1-1.18,2.84,3.83,3.83,0,0,1,1.18,2.81v5a0.56,0.56,0,0,1-.54.54h-1.08a0.56,0.56,0,0,1-.54-0.54v-5a1.73,1.73,0,0,0-1.73-1.72H366.6v6.77a0.58,0.58,0,0,1-.54.54H365a0.56,0.56,0,0,1-.54-0.54V275.94a1.07,1.07,0,0,1,1.08-1.08h2.81a3.89,3.89,0,0,1,3.89,3.89v1.62ZM370,278.74a1.73,1.73,0,0,0-1.73-1.73H366.6v5.11h1.73a1.74,1.74,0,0,0,1.73-1.76v-1.62Z" transform="translate(-90.75 -61.4)"/><path class="cls-2" d="M377.19,277v5.11h2.94a0.53,0.53,0,0,1,.54.54v1.08a0.54,0.54,0,0,1-.54.54h-2.94v5.14h2.94a0.53,0.53,0,0,1,.54.54v1.08a0.53,0.53,0,0,1-.54.54h-4a1.09,1.09,0,0,1-1.08-1.08V275.94a1.07,1.07,0,0,1,1.08-1.08h4a0.53,0.53,0,0,1,.54.54v1.08a0.54,0.54,0,0,1-.54.54h-2.94Z" transform="translate(-90.75 -61.4)"/><line class="cls-3" x1="61.34" y1="222.59" x2="110.91" y2="222.59"/><line class="cls-4" x1="300.97" y1="221.74" x2="349.85" y2="221.74"/></svg>