<svg id="Laag_1" data-name="Laag 1" xmlns="http://www.w3.org/2000/svg" viewBox="0 0 595.28 841.89"><defs><style>.cls-1{fill:#7a232e;}.cls-2{fill:#fff;}</style></defs><title>Pura Logo met achtergrond</title><rect class="cls-1" width="595.28" height="841.89"/><path class="cls-2" d="M471.59,359.73c3.77-13.38,16.43-57.37,16.43-57.37l-23.52,5.25s-2.08,7.58-5.18,18.33c-3.66-8.36-11.59-14.86-20-13-12.28,2.65-27.77,15.93-41.31,48-8.81,12.93-17,24.75-19.12,27.41-3,4.06-5.84,8.09-7.32,7-1.44-.93.65-9.91,2-14.39,3.77-13.37,4.64-14.34,6.81-22.25,5.82-21.11-7.21-10.38-20-14.42a11.82,11.82,0,0,1-3.33-1.61l-0.51-.35c0.1-.16.19-0.32,0.28-0.47,6.66-11.39,11.36-22.59,2.54-25.88-8.28-3.17-21.62-2.46-27.9,10.07-6.86,13.93,3.21,23.73,11.8,27.6-12.22,18.17-31,45.61-34.27,49.83s-6,8.12-7.47,7,0.8-9.94,2.15-14.42c3.77-13.37,16.42-57.36,16.42-57.36L296.52,344s-3.19,11.08-7.21,25.44c-5.55,17.33-24.87,49.11-33.17,50.91-8.59,1.86-6.17-8.43-4.82-12.92,3.78-13.37,16.43-57.36,16.43-57.36l-23.52,5.25s-17.72,62.13-21.38,74.55c-5.08,17.38,1.46,30.54,16.28,27.33,9.63-2.08,24.6-19.74,36.66-40.65-1.61,5.46-2.87,9.62-3.47,11.92-5.1,17.23.88,21.36,10.66,19.24,6.22-1.34,13.45-4.61,23.71-19.55,7.79-11.44,35.3-54.31,46.39-71.71,2.93,1.37,4.94,4.5,2.11,12.83-4.63,13.72-9.28,31.63-12.94,44-5,17.2.88,23.38,10.64,21.27,6.08-1.31,13.6-6.67,23.71-21.58,2.57-3.72,7.2-10.75,12.66-19.16-1,20.08,8.9,30.93,23.48,27.77,10.21-2.21,19.16-11.74,26-22.39-1.62,11.84,3.91,15.9,12.21,14.11,6.22-1.35,13.59-6.67,23.71-21.57C467.23,394.79,464.24,383.81,471.59,359.73Zm-22.66-.83c-6,18.05-17.12,34.09-24.82,35.76s-8.89-11.71-2.88-29.76c6.17-18.08,17.27-34.13,25-35.8S455.09,340.82,448.93,358.9Z" transform="translate(0)"/><path class="cls-2" d="M201.28,361.18c-10.07,2.18-18.93,11.39-25.67,21.84l3.18-11.08,0,0c1.2-9.47-3.3-12.73-10-11.27-5.1,1.11-11.14,5.46-19.42,17.67,2.31-.93,4.09-0.19,5.09,2.16L118.65,504.78l-0.15-.29c-0.14.82-.28,1.59-0.44,2.33l-0.84,2.91,0.09,0.13c-2.19,7.74-5.51,10.08-8.57,7.28,3.29,13.46,7.19,19.28,11.31,21.92,5.3,3.39,10.21,2.13,12.34-6l0.13,0.2,21.21-74.35c2.92,7.75,9.73,13.4,20.84,11,13.18-2.86,33.9-18.2,44.25-45.56C236.7,377.23,221.42,356.81,201.28,361.18Zm-4.61,48.91c-6.13,18.23-17.27,34.13-24.82,35.77-7.7,1.67-9-11.54-2.88-29.77,6-18.05,17.11-34.09,24.81-35.76S202.69,392,196.67,410.09Z" transform="translate(0)"/><path class="cls-2" d="M205.52,494.92a15.49,15.49,0,0,0-3.8,5.94c-1.27,3.36-1.12,5.86.38,5.58,2-.38,3.7-3.94,4.69-6.92A5.26,5.26,0,0,1,205.52,494.92Z" transform="translate(0)"/><path class="cls-2" d="M274.37,501.78l0.63-2c-3,3-4.82,5.16-4.57,6.44,0,0,0,.07,0,0.11l2.55-.5C273.44,504.84,273.82,503.44,274.37,501.78Z" transform="translate(0)"/><path class="cls-2" d="M356,466.1a15.46,15.46,0,0,0-3.8,5.94c-1.27,3.35-1.12,5.86.38,5.57,2-.37,3.71-3.94,4.69-6.92A5.25,5.25,0,0,1,356,466.1Z" transform="translate(0)"/><path class="cls-2" d="M278.72,480.46c-1.47.28-3.72,3.25-5,6.61s-1.12,5.86.38,5.58,3.75-3.26,5-6.61S280.23,480.18,278.72,480.46Z" transform="translate(0)"/><path class="cls-2" d="M182.23,519.42l0.63-2c-3,3-4.82,5.15-4.57,6.43a1.45,1.45,0,0,0,.15.4l2.28-.45A37.26,37.26,0,0,0,182.23,519.42Z" transform="translate(0)"/><path class="cls-2" d="M293.26,489c1.5-.29,3.75-3.25,5-6.61s1.12-5.86-.35-5.58-3.75,3.25-5,6.61S291.79,489.25,293.26,489Z" transform="translate(0)"/><path class="cls-2" d="M262,488.58c1.56-1.85,2.5-5.4,1-5.12s-3.75,3.23-5,6.61a2.85,2.85,0,0,1-.16.43C259.49,491.29,260.9,489.92,262,488.58Z" transform="translate(0)"/><path class="cls-2" d="M197.66,486.52c-1.21.23-1.61,2.41-2.59,5.39l-0.66,2c3-3,4.85-5.16,4.6-6.44A1.06,1.06,0,0,0,197.66,486.52Z" transform="translate(0)"/><path class="cls-2" d="M444.37,431.62L167,485.68a15.45,15.45,0,0,0-10.81,9.89l-7.7,26.71c-1.31,4.54,1.42,7.51,6,6.61l20.67-4a3.07,3.07,0,0,1-.39-1c-0.61-3.17,3.92-5.33,9.13-9.81,0,0,.92-3,2.13-6.83l-3.12.6c0.45-1.41.74-2.24,0.74-2.24l3.08-.62c1.47-4.69,3.17-10,4.07-12.68,1.52-4.41,2.8-6.93,6.44-7.63,1.79-.34,4.69.4,5.15,2.82,0.61,3.17-3.71,5.32-8.9,9.77,0,0-1,3-2.25,6.85l4.48-.86s-0.28.86-.73,2.27l-4.47.86c-1.89,5.75-4,12.17-4.21,12.73A32.48,32.48,0,0,1,184.7,523l82.5-16.08a2.9,2.9,0,0,1-.24-0.72c-0.61-3.17,3.92-5.33,9.11-9.78l1-3.16c-1.43,2.09-3.28,4-5.39,4.37a3.36,3.36,0,0,1-4.12-2.43,14.1,14.1,0,0,1-7.38,4.63c-5.94,1.14-8.6-2.19-7.66-7.33a4.27,4.27,0,0,1-2.64.29c-3.47,7.69-5.69,10.1-8.12,10.57-3.29.63-4.8-1.93-4.11-5.38,0.79-4,2.84-13.48,2.84-13.48l4.56-.9s-1.4,7.18-2.25,11.35c-0.3,1.44,0,2.65,1.33,2.4,1.64-.32,2.82-2.76,3.92-5.94-1.49-2.77.64-8.56,3-9,0.84-.16,2.5.73,1.66,3.22-0.35,1-1.46,3.94-1.46,3.94a2.43,2.43,0,0,0,2.39-.58c2.29-5.3,5.71-8.11,8.19-8.59,4.18-.8,7.52,2.54,4.34,8.3-1.91,3.45-4.52,5.3-7.18,5a3.68,3.68,0,0,1-1.69-.54c-0.07,2.32,1.21,3.54,3.7,3.06,2.15-.41,4.3-2.09,6.39-4.55a16.91,16.91,0,0,1,1.29-4.32c2.95-6.79,6.26-9.49,8.83-10,1.68-.32,3.18.95,3.81,2.55l1.1-3.49,4.56-.87s-2.4,7.49-4.69,14.43c2.08-2.47,4.34-5.34,6.43-8.08,2.73-5.47,5.66-7.77,8-8.2,1.64-.32,3.14.92,3.8,2.5,0.66-2,1.11-3.41,1.11-3.41l4.58-.91s-2.71,8.18-3.52,10.67c-0.29.83-.78,2.51-0.5,2.69s0.85-.54,1.49-1.29,3.1-4,5.36-7.08L311,471l4.56-.88-3.09,9.35c4.41-8.39,8.37-10.38,9.73-10.64,2.25-.43,4.25.45,2.82,4.9-0.44,1.44-.74,2.36-1.58,4.85-1.41,4.51-1.11,5.77.43,6-2.08,2.76-3.54,3.73-4.72,4-1.9.36-3-.8-1.93-4,0.78-2.31,1.31-4.08,2.19-6.67,0.77-2.37.91-3.66-.07-3.47-1.68.32-8.05,8.74-10.53,16.13l-4.56.88,2.72-8.22c-1.65,2.33-3.16,4.44-3.86,5.39-2,2.75-3.51,3.72-4.72,4-1.62.31-2.66-.47-2.28-2.67-1.39,2-3.18,3.72-5.17,4.1-3.13.6-5-2-4.2-6.48-1.9,2.19-3.79,4.24-5.57,6.07-1.25,3.81-2.28,7-2.62,7.88-0.52,1.39-1,2.57-1.5,3.58l155.49-30.3a15.22,15.22,0,0,0,10.71-9.92l7.32-26.55C451.78,433.71,449,430.72,444.37,431.62Zm-220,62.11c-0.47,1.47-.64,1.65-1.45,4.14-1.54,4.47-.71,5.49.4,6-2,2.75-3.54,3.73-4.72,4-1.9.37-3-.81-1.93-4,0.78-2.31,1.79-5.64,2.77-8.2,0.67-1.73.13-2.26-.54-2.48-1.52,2.39-5.25,7.67-8.89,7.8-0.19.56-.41,1.12-0.66,1.71-2.28,5.13-5.27,8-8.45,8.56-3.92.75-6.8-3.13-4.16-10s6.26-9.49,8.83-10c0.52-.1.8,0.45,1,1.1a3.23,3.23,0,0,1,2-1.53c1.59-.3,2.41,2,2.46,3.94a13.46,13.46,0,0,1-.15,2.94c2,0,4.66-3.11,6.1-5.13-1.57-.82-3.19-2.6-1.85-5a4.34,4.34,0,0,1,5.46-1.79c1.71,0.65.68,2.78-.71,4.91a2.21,2.21,0,0,0,.73.38C223,491.77,225.59,489.81,224.33,493.73Zm194.62-40.56c-0.16,2.59.18,6.24-.5,10.38-1,5.24-3.8,6.72-6.74,7.28-1.79.34-4.44,0.27-4.44-2.23,0-2,3.27-3.27,6.78-4.93a24.28,24.28,0,0,0,.18-3.29c0-1.08-.05-2.22-0.05-3.35-2.59,3.69-7.05,10-8.46,11.89-2,2.75-3.54,3.73-4.72,4-1.9.37-3-.81-1.93-4,0.78-2.31,1.79-5.64,2.77-8.19,0.47-1.21.33-1.82,0-2.16-3.11,7.19-8.43,15.81-15,17.08-5.94,1.14-8.6-2.19-7.66-7.33a4.26,4.26,0,0,1-2.64.29c-3.47,7.69-5.69,10.1-8.12,10.57-3.29.63-4.8-1.93-4.11-5.38,0.21-1.08.51-2.55,0.84-4.12a7.75,7.75,0,0,1-4.66,2.49c-0.19.55-.41,1.12-0.66,1.71-2.28,5.13-5.27,8-8.45,8.56s-5.54-1.72-5.12-6.13c-1.46,2.05-2.75,3.85-3.38,4.71-2.08,2.76-3.51,3.72-4.72,4-1.9.36-3-.8-1.93-4,0.78-2.31,8.41-25.63,8.41-25.63l4.59-.88s-5.94,18.07-6.74,20.56c-0.29.83-.78,2.51-0.5,2.69s0.86-.54,1.49-1.29c0.48-.57,2.61-3.4,4.69-6.19,2.51-5.26,5.62-7.37,7.9-7.8,0.52-.1.8,0.45,1,1.11a3.23,3.23,0,0,1,2-1.53c1.59-.3,2.41,2,2.46,3.94a13.72,13.72,0,0,1-.16,2.94c1.49,0,3.28-1.66,4.7-3.33,0.61-2.86,1.12-5.21,1.12-5.21l4.55-.9s-1.4,7.18-2.25,11.35c-0.3,1.44,0,2.65,1.33,2.4,1.64-.32,2.82-2.76,3.92-5.94-1.49-2.77.64-8.56,3-9,0.84-.16,2.5.73,1.66,3.22-0.35,1-1.46,3.94-1.46,3.94a2.43,2.43,0,0,0,2.39-.58c2.29-5.3,5.71-8.11,8.18-8.59,4.19-.8,7.52,2.54,4.35,8.3-1.92,3.45-4.52,5.3-7.18,5a3.71,3.71,0,0,1-1.69-.54c-0.06,2.32,1.22,3.54,3.7,3.06,4.37-.84,8.73-6.86,12.52-14.1-1.72-.56-4.2-2.52-2.63-5.39a4.34,4.34,0,0,1,5.46-1.79c1.68,0.64.71,2.71-.64,4.81l0.05,0.17a2.21,2.21,0,0,0,.62.32c2.45,0.8,5-1.17,3.79,2.76-0.46,1.47-.64,1.65-1.45,4.14-0.29.83-.75,2.5-0.47,2.68s0.86-.54,1.46-1.29c0.81-.93,6.06-8,8.19-10.91a5.17,5.17,0,0,1,4-4.31C423.42,447.8,418.95,453.18,418.95,453.18Z" transform="translate(0)"/><path class="cls-2" d="M388.64,464.34c1.56-1.85,2.5-5.4,1-5.12s-3.75,3.23-5,6.61a3.32,3.32,0,0,1-.15.43C386.07,467,387.49,465.68,388.64,464.34Z" transform="translate(0)"/><path class="cls-2" d="M410.59,468.57c0,1.07,1.39.57,1.93-.51,0.26-.51.56-1,0.83-1.6C411.77,467.28,410.59,468,410.59,468.57Z" transform="translate(0)"/></svg>