<svg id="Laag_1" data-name="Laag 1" xmlns="http://www.w3.org/2000/svg" viewBox="0 0 372.28 567.15"><defs><style>.cls-1,.cls-10,.cls-11,.cls-12,.cls-13,.cls-14,.cls-15,.cls-16,.cls-17,.cls-18,.cls-19,.cls-20,.cls-22,.cls-3,.cls-4,.cls-5,.cls-6,.cls-7,.cls-8,.cls-9{fill:#193540;}.cls-2{fill:#fff;}.cls-3{opacity:0.05;}.cls-4{opacity:0.6;}.cls-5{opacity:0.55;}.cls-6{opacity:0.5;}.cls-7{opacity:0.45;}.cls-8{opacity:0.4;}.cls-9{opacity:0.2;}.cls-10{opacity:0.15;}.cls-11{opacity:0.1;}.cls-12{opacity:0.8;}.cls-13{opacity:0.9;}.cls-14{opacity:0.85;}.cls-15{opacity:0.75;}.cls-16{opacity:0.7;}.cls-17{opacity:0.3;}.cls-18{opacity:0.25;}.cls-19{opacity:0.35;}.cls-20{opacity:0.95;}.cls-21{fill:#b2b2b2;}.cls-22{font-size:60.88px;font-family:Odin Rounded;}.cls-23{letter-spacing:-1px;}</style></defs><title>Logo Sherpa Coaching</title><path class="cls-1" d="M245.1,571.06l-6.55-6.55L232,571H211.58l-6.36-6.36L198.86,571H178.45l-7.68-7.69-6,5.08L157.65,571H132.25l-7.38-2.84-9.52-8.59-3.64-8.18v-8.17l3.94-3.94-3.94-7.88V511.47c0-5.12,3.14-7.95,5.91-10.44,1.6-1.44,3.89-3.44,7-6.1l7.16-2.64h25.86l7.36,2.82,5.84,5.24,7.6-7.6h20.42l6.36,6.36,6.36-6.36H232l6.3,6.3,6.77-6.77h46.74l6.63,6.63,6.24-6.24h38.14l7.37,2.83,7,6.26,9.09-9.09h38.11l7.1,2.59,8.63,7.27L424,511v1.72l4-12.29,10.49-7.64h15.44l10.42,7.44,14.39,41.88,5.26,5.26V560l-11,11H452.09l-5.66-5.66L440.77,571H419.89l-11-11V548.67l-5,1.9H397.7V560l-11,11H366.27l-5.37-5.37L355.53,571H339.2l-7.27-7.27L324.66,571H304.71l-6.4-6.39-6.47,6.47H245.1Z" transform="translate(-111.7 -136.92)"/><path class="cls-2" d="M131.78,503.31h25.86l9.1,8.17v8.63H153.56V516H135.44v9.06h21.31l10,7.27V552.3l-9.1,7.7H132.25l-9.53-8.6v-8.17h12.72v3.62h18.12v-8.63H131.78l-9.06-6.81V511.47Q122.72,511,131.78,503.31Zm46.66,0.47h20.42v12.68h-3.62v9.1h20.42v-9.1h-4.08V503.77H232v12.68h-3.65v30.88H232V560H211.58V547.32h4.08v-8.63H195.25v8.63h3.62V560H178.45V547.32h3.62V516.45h-3.62V503.77Zm66.65-.47h46.74v16.76H279.59v-3.62H261.9v8.67H280v13.15H261.9v9.17h17.69v-4.08h12.25V560H245.1v-12.6h4.55v-31H245.1V503.31Zm59.61,0.39h38.14l9.07,8.17v14.5L346,532.28l5.87,4.55v10.42h3.61V560H339.2V539.55H321v7.7h3.62V560H304.71V547.25h3.62V516.84h-3.62V503.7ZM321,516.41v10H339.2v-10H321Zm45.22-12.72h38.11L413,511v20.41l-9.1,8.17H383.06v7.27h3.62V560H366.27V546.82h4.08v-30h-4.08V503.7Zm17.23,13.14v9.57h16.8v-9.57h-16.8Zm55-13.06h15.44l15,43.55H473V560H452.09V547.32h4.08l-1.36-5.44H438l-1.36,5.44h4.08V560H419.89V547.32h4.55Zm7.74,11.31-4.55,13.18h9.06Z" transform="translate(-111.7 -136.92)"/><path class="cls-3" d="M296.2,303.51l-0.06,0,2.91,6.38Z" transform="translate(-111.7 -136.92)"/><polygon class="cls-3" points="187.34 172.99 187.34 172.99 187.35 173.01 187.34 172.99"/><path class="cls-4" d="M336.53,394.3a11,11,0,0,1-1.23.8c-0.57.26-1.12,0.53-1.66,0.8a35.29,35.29,0,0,1-4.41,2.25l-3.46,1.56-1.72.78-0.86.39L323,401c-1.43.69,1.71-.83,1.33-0.66l-0.33.09L318.84,402l-2.5.81c-0.85.21-1.72,0.33-2.56,0.5-2.75.59-5.48,1-8.19,1.32l4.89,70.85a155.1,155.1,0,0,0,23.5-6.21c1.5-.51,3-1,4.49-1.55l4.37-1.91,8.76-3.94,0.55-.25c-0.23.12,3-1.49,1.75-.86l0.2-.12,0.81-.48,1.63-1,3.27-1.93c0.83-.44,2.15-1.28,3.65-2.26Z" transform="translate(-111.7 -136.92)"/><path class="cls-5" d="M303.45,476.54c2.34-.31,4.68-0.67,7-1.1l-4.89-70.85a79.05,79.05,0,0,1-29.6-1.91c-1.14-.3-2.24-0.64-3.34-1l-19,66a125.27,125.27,0,0,0,33.3,9A112.83,112.83,0,0,0,303.45,476.54Z" transform="translate(-111.7 -136.92)"/><path class="cls-6" d="M272.65,401.69A80.36,80.36,0,0,1,248.09,389c-1.4-1.22-2.82-2.28-4.13-3.41L206.54,437c14.73,13.35,30.71,23.72,47.14,30.63Z" transform="translate(-111.7 -136.92)"/><path class="cls-7" d="M206.54,437L244,385.62c-0.31-.26-0.65-0.52-0.95-0.8q-2.23-2.29-4.33-4.28c-1.32-1.42-2.41-3-3.58-4.28-0.56-.68-1.15-1.3-1.66-2l-1.34-2.07q-1.32-2-2.54-3.71c-0.56-1-.85-1.83-1.29-2.61s-0.81-1.45-1.2-2.06l-0.15-.23-0.24-.53-0.47-1-0.87-1.93-0.2-.44-53.67,36.13A216.52,216.52,0,0,0,206.54,437Z" transform="translate(-111.7 -136.92)"/><path class="cls-8" d="M222,352.65l-58.44,30.26q3.8,6.64,7.93,12.89l53.67-36.13Z" transform="translate(-111.7 -136.92)"/><rect class="cls-3" x="187.35" y="173"/><rect class="cls-3" x="187.35" y="173"/><circle class="cls-3" cx="299.06" cy="309.92" transform="translate(-215.75 21.37) rotate(-25.41)"/><circle class="cls-3" cx="299.05" cy="309.92" transform="translate(-218.24 28.15) rotate(-26.37)"/><circle class="cls-3" cx="299.06" cy="309.92" transform="translate(-243.26 165.32) rotate(-45)"/><rect class="cls-3" x="187.35" y="173"/><polygon class="cls-3" points="187.35 173 187.35 173 187.35 173 187.35 173"/><circle class="cls-3" cx="187.35" cy="173"/><polygon class="cls-3" points="187.35 173 187.35 173 187.35 173 187.35 173"/><circle class="cls-3" cx="299.06" cy="309.93" transform="translate(-236.68 97.62) rotate(-35.94)"/><polygon class="cls-3" points="187.35 173 187.35 173 187.35 173 187.35 173"/><polygon class="cls-3" points="187.35 173 187.35 173 187.35 173 187.35 173"/><polygon class="cls-3" points="187.35 173 187.35 173 187.35 173 187.35 173"/><polygon class="cls-3" points="187.35 173 187.35 173 187.35 173 187.35 173"/><circle class="cls-3" cx="187.35" cy="173"/><polygon class="cls-3" points="187.35 173 187.35 173.01 187.35 173.01 187.35 173"/><rect class="cls-3" x="187.35" y="173.01"/><polygon class="cls-3" points="187.35 173.01 187.35 173.01 187.35 173.01 187.35 173.01"/><polygon class="cls-3" points="187.36 173.01 187.35 173 187.35 173 187.35 173 187.35 173.01 187.35 173.01 187.36 173.01"/><rect class="cls-3" x="187.35" y="173"/><polygon class="cls-3" points="187.35 173.01 187.35 173.01 187.35 173.01 187.35 173.01"/><polygon class="cls-3" points="187.35 173 187.35 173.01 187.35 173.01 187.35 173"/><circle class="cls-3" cx="299.06" cy="309.93" transform="translate(-223.6 301.89) rotate(-63.43)"/><polygon class="cls-3" points="187.35 173 187.35 173.01 187.35 173.01 187.35 173"/><path class="cls-9" d="M327.36,355.73a32.35,32.35,0,0,0,4.74-7.58,26.64,26.64,0,0,0,1.06-2.85l12,12.5a46.13,46.13,0,0,1-4.25,8,49.38,49.38,0,0,1-10,10.75c-0.57.42-1.17,0.82-1.75,1.23l-7.54-17A32,32,0,0,0,327.36,355.73Z" transform="translate(-111.7 -136.92)"/><path class="cls-10" d="M334.43,339.87a32.27,32.27,0,0,0,0-8.21c-0.09-1.34-.52-2.6-0.73-3.89l-0.35-1.09,15.13,7.4a55.31,55.31,0,0,1,.42,6.73,48.37,48.37,0,0,1-2,12.62c-0.47,1.46-1,2.92-1.64,4.38l-12-12.5A39,39,0,0,0,334.43,339.87Z" transform="translate(-111.7 -136.92)"/><polygon class="cls-3" points="187.36 173 187.35 173 187.36 173.01 187.36 173"/><path class="cls-11" d="M332.57,324.33l-0.91-2c-0.3-.68-0.54-0.95-0.79-1.45a24.94,24.94,0,0,0-1.8-2.76,25.71,25.71,0,0,0-4.58-4.53c-0.53-.41-1.07-0.75-1.61-1.11l17.86,1.9,0.11,0.16c0.5,0.72,1.16,1.61,1.52,2.23l1.13,1.92,0.14,0.24,0.07,0.12a1.89,1.89,0,0,1,.21.41l0.27,0.59,0.55,1.21c0.36,0.81.74,1.63,1.09,2.47a53.51,53.51,0,0,1,1.66,5.33,38.34,38.34,0,0,1,.95,5l-15.13-7.4Z" transform="translate(-111.7 -136.92)"/><polygon class="cls-3" points="187.35 173 187.35 173 187.35 173 187.35 173"/><polygon class="cls-3" points="187.36 173 187.36 173 187.35 173 187.35 173 187.35 173 187.36 173"/><path class="cls-11" d="M314.45,308.81a25.75,25.75,0,0,0-8.41-.5l-0.87.09,21.74-5.4a35.94,35.94,0,0,1,3.42,1.82,36.46,36.46,0,0,1,7.25,5.72,39.78,39.78,0,0,1,3.17,3.8l-17.86-1.9A25.54,25.54,0,0,0,314.45,308.81Z" transform="translate(-111.7 -136.92)"/><path class="cls-3" d="M315.88,299.9c-0.61-.07-1.17-0.08-1.75-0.12l-15.06,10.14h0l1.71-.55a13.16,13.16,0,0,1,2.18-.57l1.41-.3,0.76-.08,21.74-5.4A35.06,35.06,0,0,0,315.88,299.9Z" transform="translate(-111.7 -136.92)"/><path class="cls-3" d="M314.12,299.78a34.64,34.64,0,0,0-8,.45l-7.05,9.69h0Z" transform="translate(-111.7 -136.92)"/><path class="cls-3" d="M306.11,300.23c-0.46.08-.93,0.16-1.35,0.24l-2.07.48-1.16.39-2.47,8.58h0Z" transform="translate(-111.7 -136.92)"/><path class="cls-3" d="M299.05,309.92l-0.52-7.47-0.28.12-2.06.94,2.85,6.4h0Z" transform="translate(-111.7 -136.92)"/><path class="cls-3" d="M299.06,309.92l2.47-8.58-0.59.19a19.44,19.44,0,0,0-2.39.91l0.52,7.47h0Z" transform="translate(-111.7 -136.92)"/><path class="cls-3" d="M299.11,309.92h0Z" transform="translate(-111.7 -136.92)"/><path class="cls-12" d="M365.62,342.36a63.74,63.74,0,0,0-3.68-23.86l-0.22-.75-0.11-.38c-0.13-.31,1,2.06.48,0.94l-0.11-.24-0.7-1.55,56.34,6a118.8,118.8,0,0,1,2.82,17.21,120.26,120.26,0,0,1-.91,29.12l-53.92-26.35v-0.11Z" transform="translate(-111.7 -136.92)"/><path class="cls-1" d="M318.11,283.75a55,55,0,0,1,12,2.63c0.84,0.29,1.63.68,2.45,1l24.53-16.51L341.24,252Z" transform="translate(-111.7 -136.92)"/><path class="cls-1" d="M343.34,249.09l-2.1,2.89,15.82,18.9,17.9-12C365.8,253,355,250,343.34,249.09Z" transform="translate(-111.7 -136.92)"/><path class="cls-1" d="M343.34,249.09c-1.56-.12-3.13-0.19-4.72-0.24l2.62,3.12Z" transform="translate(-111.7 -136.92)"/><path class="cls-1" d="M316.2,250.33v0c3.29-.4,6.8-0.66,10.56-0.76-3.76.1-7.27,0.36-10.56,0.76l-9.61,33.4a55,55,0,0,1,11.52,0L341.24,252l-2.62-3.12A129.7,129.7,0,0,0,316.2,250.33Z" transform="translate(-111.7 -136.92)"/><path class="cls-1" d="M297.37,285.55A49.89,49.89,0,0,1,306,283.8l0.58-.05,9.61-33.4a72,72,0,0,0-20.88,5.45Z" transform="translate(-111.7 -136.92)"/><path class="cls-1" d="M291.18,287.7l1.89-.85,0.95-.43a3.51,3.51,0,0,0-.65.34l0.19-.06,0.38-.11c1.14-.38,2.29-0.72,3.44-1l-2.05-29.75c-7.24,3.26-12.15,7.48-15,11.89l9.22,20.76Z" transform="translate(-111.7 -136.92)"/><path class="cls-13" d="M376.62,260c-0.55-.39-1.11-0.78-1.66-1.16l-17.9,12,1.16,1.38Z" transform="translate(-111.7 -136.92)"/><path class="cls-13" d="M400.64,284.21c-1.21-1.74-2.45-3.5-3.7-5.17-2.5-2.84-4.87-5.78-7.57-8.4a95,95,0,0,0-8.43-7.46c-1.41-1.11-2.86-2.15-4.33-3.18l-18.41,12.27-1.16-1.38L332.52,287.4a53.35,53.35,0,0,1,16,10.24l52.38-13Z" transform="translate(-111.7 -136.92)"/><path class="cls-14" d="M361.1,316.13l-1.75-3.88c-0.13-.29-0.32-0.73-0.41-0.88l-0.28-.45-0.53-.92c-0.35-.62-0.64-1.26-1-1.94-1.14-1.51-2.08-3.21-3.3-4.69A46.57,46.57,0,0,0,350,299c-0.47-.48-1-0.93-1.46-1.39l52.38-13,1.51,2.23,0.88,1.33c0.29,0.44.39,0.65,0.6,1l2.16,3.66,1.08,1.83,0.13,0.23c-0.46-1,.78,1.56.7,1.42l0.28,0.61,0.56,1.22a114.7,114.7,0,0,1,8.77,24.35l-56.34-6Z" transform="translate(-111.7 -136.92)"/><path class="cls-15" d="M365.61,342.46l53.92,26.35a125.36,125.36,0,0,1-17.7,47.72L357.94,371A65.62,65.62,0,0,0,365.61,342.46Z" transform="translate(-111.7 -136.92)"/><path class="cls-16" d="M337.32,393.74l2.12-1.42,1.09-.7,1-.84c1.29-1.13,2.69-2.18,4-3.35s2.44-2.53,3.72-3.78A63.33,63.33,0,0,0,357.94,371l43.88,45.53q-1.53,2.44-3.17,4.79-3.18,4.26-6.46,8.45c-2.28,2.7-4.75,5.22-7.15,7.8l-1.82,1.91-2,1.75-3.94,3.47c-1.36,1.15-2.54,2.28-4.07,3.43l-4.79,3.41c-1.61,1.12-3.41,2.35-5,3.4L336.53,394.3C336.79,394.11,337.06,393.91,337.32,393.74Z" transform="translate(-111.7 -136.92)"/><path class="cls-1" d="M285.58,290.52a4.77,4.77,0,0,1,.42-0.24c0.68-.33,1.33-0.67,2-1l0.47-.29c0.13-.09.58-0.27,0.86-0.4l0.23-.1-9.22-20.76C274.43,276.69,277,286.48,285.58,290.52Z" transform="translate(-111.7 -136.92)"/><path class="cls-17" d="M304.39,387.29L303,366.49a35.69,35.69,0,0,1-12-1.67,34.93,34.93,0,0,1-6.81-2.94l-6.55,22.77A58.84,58.84,0,0,0,304.39,387.29Z" transform="translate(-111.7 -136.92)"/><path class="cls-18" d="M311.41,365.37l2.43-.76,1.21-.38,0.15,0c0.44-.21-0.43.23-0.27,0.15l0.36-.16,0.71-.32,1.43-.64a10.9,10.9,0,0,0,1.26-.6c0.56-.34,1.13-0.65,1.72-1,0.42-.26.83-0.56,1.24-0.85l7.54,17c-0.56.4-1.11,0.8-1.68,1.18s-1,.6-1.45.9l-1.35.79-0.67.4-0.34.2-0.85.41-1.72.79c-1.15.51-2.31,1.05-3.5,1.54a60.08,60.08,0,0,1-13.24,3.3L303,366.49A40,40,0,0,0,311.41,365.37Z" transform="translate(-111.7 -136.92)"/><path class="cls-19" d="M284.11,361.88A36,36,0,0,1,273.56,353a25.75,25.75,0,0,1-1.56-2.18l-0.77-1.09-0.45-.9-15.9,21.84a60.71,60.71,0,0,0,22.68,14Z" transform="translate(-111.7 -136.92)"/><path class="cls-8" d="M242.44,353.09l0.48,1,0.24,0.53a2.66,2.66,0,0,0,.42.83l0.12,0.21,1.9,3.23c0.19,0.3.27,0.48,0.53,0.86l0.74,1.1,1.51,2.17,1.53,2.12,1.55,1.78c1.06,1.16,2,2.39,3.17,3.44l0.23,0.22,15.9-21.84,0-.08-0.53-.94-0.28-.46c-0.09-.13-0.25-0.53-0.36-0.78L268,343.11l-0.1-.21c0.11,0.21-.37-0.78.22,0.42L268,343l-0.22-.7-0.43-1.39a20.85,20.85,0,0,1-.81-2.8,43.82,43.82,0,0,1-1-5.63L240.7,349.21c0.27,0.59.54,1.17,0.79,1.77Z" transform="translate(-111.7 -136.92)"/><path class="cls-3" d="M299.52,302.55l2.85,6.41,0.06,0Z" transform="translate(-111.7 -136.92)"/><polygon class="cls-3" points="187.82 165.62 187.82 165.62 187.81 165.6 187.82 165.62"/><path class="cls-14" d="M264.6,143.23c-1.49.52-3,1-4.49,1.55l-4.37,1.92L247,150.64l-0.55.25c0.23-.12-3,1.49-1.75.87l-0.2.12-0.81.48-1.63,1-3.27,1.93c-0.83.44-2.15,1.27-3.65,2.26L262,218.16a11.6,11.6,0,0,1,1.23-.8c0.57-.25,1.13-0.52,1.66-0.8a35.56,35.56,0,0,1,4.41-2.25l3.46-1.56,1.72-.77,0.86-.39,0.22-.1c1.43-.69-1.71.83-1.33,0.66l0.33-.09,5.13-1.55,2.5-.81c0.85-.21,1.71-0.33,2.56-0.5,2.75-.59,5.48-1,8.19-1.33l-4.83-70.06q-3.83.34-7.5,0.78A154.2,154.2,0,0,0,264.6,143.23Z" transform="translate(-111.7 -136.92)"/><path class="cls-13" d="M288.15,137.8L293,207.86a79.19,79.19,0,0,1,29.6,1.91c1.14,0.3,2.24.64,3.34,1l19.41-67.46a172.43,172.43,0,0,0-35.08-6.37C302.42,136.87,295.08,137.2,288.15,137.8Z" transform="translate(-111.7 -136.92)"/><path class="cls-20" d="M345.33,143.3l-19.41,67.46a80.49,80.49,0,0,1,24.56,12.66c1.4,1.22,2.82,2.28,4.13,3.41l42.52-58.41A170.87,170.87,0,0,0,345.33,143.3Z" transform="translate(-111.7 -136.92)"/><path class="cls-1" d="M359.9,231.91c1.32,1.42,2.41,3,3.57,4.27,0.56,0.68,1.15,1.31,1.66,2l1.34,2.07c0.88,1.33,1.73,2.56,2.54,3.71,0.56,1,.85,1.83,1.29,2.61s0.81,1.45,1.2,2.06l0.15,0.23,0.24,0.53,0.47,1,0.87,1.93,0.19,0.43,63.31-42.62a148.19,148.19,0,0,0-39.59-41.73l-42.52,58.41c0.31,0.27.65,0.52,0.95,0.8Q357.79,229.92,359.9,231.91Z" transform="translate(-111.7 -136.92)"/><path class="cls-1" d="M436.73,210.16l-63.31,42.62,3.16,7,1.42-.73,4.35-2.9-4.35,2.9,66.48-34.43A127.61,127.61,0,0,0,436.73,210.16Z" transform="translate(-111.7 -136.92)"/><circle class="cls-3" cx="187.81" cy="165.61"/><rect class="cls-3" x="187.81" y="165.61"/><circle class="cls-3" cx="187.81" cy="165.61"/><rect class="cls-3" x="187.81" y="165.61" width="0.01" height="0.01"/><rect class="cls-3" x="187.81" y="165.61"/><circle class="cls-3" cx="187.81" cy="165.61"/><polygon class="cls-3" points="187.81 165.61 187.81 165.61 187.81 165.61 187.81 165.61"/><circle class="cls-3" cx="187.81" cy="165.61"/><circle class="cls-3" cx="187.81" cy="165.61"/><rect class="cls-3" x="299.51" y="302.53" transform="translate(-184.9 -40.12) rotate(-16.39)"/><circle class="cls-3" cx="299.52" cy="302.54" transform="translate(-232.1 95.54) rotate(-35.81)"/><polygon class="cls-3" points="187.81 165.61 187.81 165.61 187.81 165.61 187.81 165.61"/><polygon class="cls-3" points="187.81 165.61 187.81 165.61 187.81 165.61 187.81 165.61"/><polygon class="cls-3" points="187.81 165.61 187.81 165.61 187.81 165.61 187.81 165.61"/><circle class="cls-3" cx="187.81" cy="165.61"/><polygon class="cls-3" points="187.81 165.61 187.81 165.61 187.81 165.61 187.81 165.61"/><circle class="cls-3" cx="299.52" cy="302.53" transform="translate(-229.3 250.78) rotate(-56.83)"/><polygon class="cls-3" points="187.81 165.61 187.81 165.6 187.81 165.61 187.81 165.61"/><polygon class="cls-3" points="187.81 165.61 187.81 165.61 187.81 165.61 187.81 165.6 187.81 165.61 187.81 165.61 187.81 165.61"/><rect class="cls-3" x="187.81" y="165.61"/><polygon class="cls-3" points="187.81 165.61 187.81 165.61 187.81 165.61 187.81 165.61"/><polygon class="cls-3" points="187.81 165.61 187.81 165.61 187.81 165.61 187.81 165.61"/><rect class="cls-3" x="187.81" y="165.61"/><polygon class="cls-3" points="187.81 165.61 187.81 165.61 187.81 165.61 187.81 165.61"/><path class="cls-11" d="M267.63,235.9a49.39,49.39,0,0,0-10,10.75,46.13,46.13,0,0,0-4.25,8l12,12.5a26.36,26.36,0,0,1,1.06-2.85,29.13,29.13,0,0,1,10.45-12.65l-7.54-17C268.8,235.08,268.2,235.49,267.63,235.9Z" transform="translate(-111.7 -136.92)"/><path class="cls-11" d="M265.24,285.78l-0.35-1.09c-0.21-1.29-.64-2.54-0.73-3.89a32.32,32.32,0,0,1,0-8.21,38.91,38.91,0,0,1,1.27-5.44l-12-12.5c-0.61,1.45-1.17,2.92-1.64,4.38a48.22,48.22,0,0,0-2,12.62,55.28,55.28,0,0,0,.42,6.73Z" transform="translate(-111.7 -136.92)"/><polygon class="cls-3" points="187.81 165.61 187.8 165.61 187.81 165.61 187.81 165.61"/><path class="cls-3" d="M252.72,288.75c0.34,0.84.73,1.66,1.09,2.47l0.55,1.21,0.27,0.6a1.57,1.57,0,0,0,.21.41l0.07,0.12,0.14,0.24,1.13,1.92c0.36,0.62,1,1.51,1.52,2.23l0.11,0.16,17.86,1.9c-0.54-.35-1.08-0.69-1.61-1.1a25.48,25.48,0,0,1-4.58-4.53,24.92,24.92,0,0,1-1.8-2.75c-0.26-.5-0.49-0.77-0.79-1.45l-0.91-2-0.76-2.35-15.13-7.4a38.47,38.47,0,0,0,.95,5A54,54,0,0,0,252.72,288.75Z" transform="translate(-111.7 -136.92)"/><polygon class="cls-3" points="187.81 165.61 187.81 165.61 187.81 165.61 187.81 165.61"/><polygon class="cls-3" points="187.81 165.61 187.81 165.61 187.8 165.61 187.8 165.61 187.81 165.61 187.81 165.61"/><path class="cls-3" d="M268.25,307.63a35.36,35.36,0,0,0,3.42,1.82l21.74-5.4-0.87.1A25.49,25.49,0,0,1,275.69,300l-17.86-1.9a39.86,39.86,0,0,0,3.17,3.8A36.42,36.42,0,0,0,268.25,307.63Z" transform="translate(-111.7 -136.92)"/><polygon class="cls-3" points="187.81 165.61 187.8 165.61 187.81 165.61 187.81 165.61"/><path class="cls-3" d="M284.45,312.67l15.05-10.14h0l-1.71.55a13.2,13.2,0,0,1-2.18.57l-1.4.3-0.76.08-21.74,5.4a35,35,0,0,0,11,3.11C283.3,312.62,283.87,312.64,284.45,312.67Z" transform="translate(-111.7 -136.92)"/><path class="cls-3" d="M292.46,312.22l7.05-9.69h0l-15.06,10.14A34.62,34.62,0,0,0,292.46,312.22Z" transform="translate(-111.7 -136.92)"/><path class="cls-3" d="M295.88,311.5l1.16-.38,2.47-8.58h0l-7.05,9.69c0.46-.08.93-0.16,1.35-0.25Z" transform="translate(-111.7 -136.92)"/><path class="cls-3" d="M299.52,302.55h0L300,310l0.28-.12,2.06-.94Z" transform="translate(-111.7 -136.92)"/><path class="cls-3" d="M300,310l-0.52-7.47h0L297,311.12l0.59-.2A20.17,20.17,0,0,0,300,310Z" transform="translate(-111.7 -136.92)"/><path class="cls-3" d="M299.51,302.53h0Z" transform="translate(-111.7 -136.92)"/><path class="cls-16" d="M181,290l56.34,6-0.7-1.55-0.11-.24c-0.54-1.12.61,1.25,0.47,0.94l-0.11-.37-0.22-.75A63.73,63.73,0,0,1,233,270.1s0-.07,0-0.1L179,243.64A120.4,120.4,0,0,0,181,290Z" transform="translate(-111.7 -136.92)"/><path class="cls-6" d="M280.46,328.71a55,55,0,0,1-12-2.63c-0.84-.29-1.63-0.68-2.45-1l-42.43,28.56a99.18,99.18,0,0,0,29,13.4Z" transform="translate(-111.7 -136.92)"/><path class="cls-7" d="M280,370.34l12-41.63a55,55,0,0,1-11.52,0L252.57,367c1.58,0.44,3.17.84,4.77,1.19A97.78,97.78,0,0,0,280,370.34Z" transform="translate(-111.7 -136.92)"/><path class="cls-8" d="M301.2,326.91a50.28,50.28,0,0,1-8.63,1.74l-0.58.05-12,41.63a95.58,95.58,0,0,0,20.2-2.59c1.26-.29,2.5-0.65,3.74-1Z" transform="translate(-111.7 -136.92)"/><path class="cls-19" d="M301.2,326.91c1.15-.33,2.3-0.67,3.44-1l0.38-.11,0.19-.06c0.83-.39-0.92.47-0.65,0.34l0.95-.43,1.89-.85,1.66-.75,15.23,34.29-1.42.84-0.89.53c0.12,0-1.79.88-1.12,0.55l-0.29.13-0.59.27a101.71,101.71,0,0,1-16,6.13Z" transform="translate(-111.7 -136.92)"/><path class="cls-5" d="M201.62,333.43c2.5,2.84,4.87,5.78,7.57,8.41a95.48,95.48,0,0,0,8.43,7.46c1.94,1.53,3.95,3,6,4.33L266,325.06a53.43,53.43,0,0,1-16-10.24l-52.38,13,0.28,0.42C199.14,330,200.37,331.75,201.62,333.43Z" transform="translate(-111.7 -136.92)"/><path class="cls-4" d="M190.29,315.53l0.28,0.61c-0.08-.14,1.16,2.38.7,1.42l0.13,0.23,1.08,1.83,2.16,3.67c0.21,0.34.31,0.55,0.6,1l0.89,1.33,1.51,2.23,52.38-13c-0.49-.46-1-0.92-1.46-1.39a46.56,46.56,0,0,1-3.85-4.34c-1.22-1.48-2.16-3.18-3.3-4.69-0.33-.68-0.62-1.32-1-1.94l-0.53-.92-0.28-.45c-0.1-.15-0.28-0.6-0.41-0.88l-1.75-3.89-0.17-.39L181,290a114.68,114.68,0,0,0,8.77,24.35Z" transform="translate(-111.7 -136.92)"/><path class="cls-15" d="M240.63,241.45l-43.88-45.53A125.35,125.35,0,0,0,179,243.64L233,270A65.66,65.66,0,0,1,240.63,241.45Z" transform="translate(-111.7 -136.92)"/><path class="cls-12" d="M261.25,218.72l-2.12,1.42-1.09.7-1,.84c-1.28,1.13-2.69,2.18-4,3.35s-2.44,2.53-3.72,3.78a63.32,63.32,0,0,0-8.72,12.63l-43.88-45.53c1-1.62,2.07-3.23,3.17-4.79q3.19-4.26,6.46-8.45c2.28-2.69,4.75-5.22,7.15-7.8l1.82-1.91,2-1.75,3.94-3.47c1.36-1.15,2.55-2.28,4.07-3.43l4.79-3.41c1.61-1.12,3.41-2.34,5-3.4L262,218.16C261.78,218.35,261.51,218.54,261.25,218.72Z" transform="translate(-111.7 -136.92)"/><path class="cls-17" d="M309.29,323.91c0.28-.13.72-0.31,0.86-0.4l0.47-.29q0.94-.56,2-1c0.68-.33,1.53-1,2.3-1.53a11.93,11.93,0,0,0,1.26-.86L341,345.59a40.13,40.13,0,0,1-3.21,3c-1.4,1.18-2.57,2.36-4.19,3.54s-3.28,2.33-5,3.46l-1.26.85c-0.44.29-.63,0.38-1,0.58l-1.79,1.05-0.37.21L309.06,324Z" transform="translate(-111.7 -136.92)"/><path class="cls-18" d="M319.4,317.09l2-2.07,1-1,0.14-.18,31,15.17c-0.68,1.2-1.37,2.38-2.13,3.54l-1.39,2.22c-0.5.71-1,1.4-1.57,2.11-1.06,1.39-2.12,2.81-3.23,4.18-1.42,1.51-2.81,3.07-4.27,4.57l-24.87-25.8C317.26,318.93,318.27,318,319.4,317.09Z" transform="translate(-111.7 -136.92)"/><path class="cls-9" d="M323.32,312.84a36.65,36.65,0,0,0,4.82-7.27l33.26,3.53c-0.38,1.6-.81,3.2-1.3,4.79A82.23,82.23,0,0,1,353.6,329l-31-15.17Z" transform="translate(-111.7 -136.92)"/><path class="cls-9" d="M329.45,303a44.85,44.85,0,0,0,2.77-8.55l31-7.71c0.15,2.48.22,5,.19,7.5a82.24,82.24,0,0,1-2,14.9l-33.26-3.53C328.6,304.71,329,303.83,329.45,303Z" transform="translate(-111.7 -136.92)"/><path class="cls-10" d="M321,227.81a57.91,57.91,0,0,0-8.14-2.15,57.27,57.27,0,0,0-18.7-.5l1.43,20.8a35.76,35.76,0,0,1,12,1.67,35,35,0,0,1,6.79,2.93h0Z" transform="translate(-111.7 -136.92)"/><path class="cls-21" d="M314.45,250.57h0Z" transform="translate(-111.7 -136.92)"/><path class="cls-10" d="M280.94,228.47c-1.19.48-2.35,1-3.5,1.54l-1.72.78-0.85.41-0.34.2-0.67.4-1.35.79c-0.48.3-.8,0.44-1.46,0.9s-1.12.79-1.68,1.18l7.54,17c0.41-.29.82-0.58,1.24-0.85,0.59-.3,1.16-0.62,1.72-1a11,11,0,0,1,1.26-.6l1.43-.64,0.71-.32,0.36-.16c0.16-.08-0.71.35-0.27,0.15l0.15,0,1.21-.38,2.43-.77a40,40,0,0,1,8.45-1.12l-1.43-20.8A59.85,59.85,0,0,0,280.94,228.47Z" transform="translate(-111.7 -136.92)"/><path class="cls-9" d="M314.47,250.57h0l0.61-.09Z" transform="translate(-111.7 -136.92)"/><path class="cls-9" d="M338.59,248.85v0l-17.59-21-6.54,22.75,0.61-.08A131.29,131.29,0,0,1,338.59,248.85Z" transform="translate(-111.7 -136.92)"/><path class="cls-9" d="M315.08,250.49a110.78,110.78,0,0,1,11.68-.91,110.78,110.78,0,0,0-11.68.91l-0.61.09A36,36,0,0,1,325,259.5a25.44,25.44,0,0,1,1.56,2.18l0.77,1.09,0.45,0.9,10.79-14.82A131.29,131.29,0,0,0,315.08,250.49Z" transform="translate(-111.7 -136.92)"/><path class="cls-9" d="M343.7,241.83a60.68,60.68,0,0,0-22.68-14l17.59,21Z" transform="translate(-111.7 -136.92)"/><path class="cls-9" d="M350.18,249.39l-1.53-2.12-1.55-1.78c-1.06-1.15-2-2.39-3.17-3.43l-0.23-.22-5.09,7,0,0a91.8,91.8,0,0,1,11.94,1.08Z" transform="translate(-111.7 -136.92)"/><path class="cls-9" d="M356.13,259.37l-0.48-1-0.24-.52A2.87,2.87,0,0,0,355,257l-0.12-.2L353,253.52c-0.18-.3-0.26-0.48-0.53-0.87l-0.74-1.1-1.13-1.63a91.8,91.8,0,0,0-11.94-1.08l14.64,17.5,4.61-3.1c-0.27-.59-0.54-1.17-0.79-1.77Z" transform="translate(-111.7 -136.92)"/><path class="cls-9" d="M338.61,248.83v0h0Z" transform="translate(-111.7 -136.92)"/><path class="cls-9" d="M338.59,248.85L327.8,263.67l0,0.08,0.53,0.94,0.28,0.46c0.09,0.13.24,0.52,0.37,0.77l1.54,3.42,0.1,0.21c-0.11-.21.37,0.77-0.22-0.42l0.11,0.35,0.21,0.7,0.43,1.39a21,21,0,0,1,.81,2.8,43.88,43.88,0,0,1,1,5.63l20.31-13.67-14.64-17.5h0Z" transform="translate(-111.7 -136.92)"/><path class="cls-9" d="M360.49,270.74c-0.51-1.67-1.08-3.31-1.62-4.94a19.36,19.36,0,0,0-1-2.55l-4.61,3.1,4.95,5.91Z" transform="translate(-111.7 -136.92)"/><path class="cls-9" d="M360.49,270.74l-2.28,1.52-4.95-5.91L333,280s0,0.08,0,.12a45,45,0,0,1-.21,11.63q-0.24,1.33-.53,2.64l31-7.71a63.69,63.69,0,0,0-1.71-11.81A38.25,38.25,0,0,0,360.49,270.74Z" transform="translate(-111.7 -136.92)"/><text class="cls-22" transform="translate(75.32 500.91)"><tspan class="cls-23">C</tspan><tspan x="36.41" y="0">oaching</tspan></text></svg>